<?xml version="1.0" encoding="UTF-8" standalone="no"?>
<!-- Created with Inkscape (http://www.inkscape.org/) -->

<svg
   xmlns:dc="http://purl.org/dc/elements/1.1/"
   xmlns:cc="http://creativecommons.org/ns#"
   xmlns:rdf="http://www.w3.org/1999/02/22-rdf-syntax-ns#"
   xmlns:svg="http://www.w3.org/2000/svg"
   xmlns="http://www.w3.org/2000/svg"
   xmlns:sodipodi="http://sodipodi.sourceforge.net/DTD/sodipodi-0.dtd"
   xmlns:inkscape="http://www.inkscape.org/namespaces/inkscape"
   version="1.1"
   id="svg10"
   xml:space="preserve"
   width="1052.1243"
   height="834.05591"
   viewBox="0 0 1052.1242 834.05587"
   sodipodi:docname="rwd1.svg"
   inkscape:version="0.92.1 r15371"><metadata
     id="metadata16"><rdf:RDF><cc:Work
         rdf:about=""><dc:format>image/svg+xml</dc:format><dc:type
           rdf:resource="http://purl.org/dc/dcmitype/StillImage" /><dc:title></dc:title></cc:Work></rdf:RDF></metadata><defs
     id="defs14"><clipPath
       clipPathUnits="userSpaceOnUse"
       id="clipPath28"><path
         d="M 0,800 H 800 V 0 H 0 Z"
         id="path26"
         inkscape:connector-curvature="0" /></clipPath><clipPath
       clipPathUnits="userSpaceOnUse"
       id="clipPath164"><path
         d="M 0,800 H 800 V 0 H 0 Z"
         id="path162"
         inkscape:connector-curvature="0" /></clipPath><clipPath
       clipPathUnits="userSpaceOnUse"
       id="clipPath8404"><rect
         style="opacity:0;fill:#f2f2f2;fill-opacity:0.38693471;stroke:#000000;stroke-width:0.75;stroke-opacity:0.02512566"
         id="rect8406"
         width="789.0932"
         height="625.54193"
         x="5.4533691"
         y="-662.63605" /></clipPath><clipPath
       clipPathUnits="userSpaceOnUse"
       id="clipPath8408"><rect
         style="opacity:0;fill:#f2f2f2;fill-opacity:0.38693471;stroke:#000000;stroke-width:0.75;stroke-opacity:0.02512566"
         id="rect8410"
         width="789.0932"
         height="625.54193"
         x="4.9533691"
         y="-662.63605"
         transform="scale(1,-1)" /></clipPath><clipPath
       clipPathUnits="userSpaceOnUse"
       id="clipPath8412"><rect
         style="opacity:0;fill:#f2f2f2;fill-opacity:0.38693471;stroke:#000000;stroke-width:0.75;stroke-opacity:0.02512566"
         id="rect8414"
         width="789.0932"
         height="625.54193"
         x="5.4534693"
         y="-662.63605"
         transform="scale(1,-1)" /></clipPath><clipPath
       clipPathUnits="userSpaceOnUse"
       id="clipPath8416"><rect
         style="opacity:0;fill:#f2f2f2;fill-opacity:0.38693471;stroke:#000000;stroke-width:0.75;stroke-opacity:0.02512566"
         id="rect8418"
         width="789.0932"
         height="625.54193"
         x="5.4533691"
         y="-662.63605"
         transform="scale(1,-1)" /></clipPath></defs><sodipodi:namedview
     pagecolor="#ffffff"
     bordercolor="#666666"
     borderopacity="1"
     objecttolerance="10"
     gridtolerance="10"
     guidetolerance="10"
     inkscape:pageopacity="0"
     inkscape:pageshadow="2"
     inkscape:window-width="1600"
     inkscape:window-height="838"
     id="namedview12"
     showgrid="false"
     inkscape:zoom="0.44481432"
     inkscape:cx="267.74128"
     inkscape:cy="302.68898"
     inkscape:window-x="-8"
     inkscape:window-y="-8"
     inkscape:window-maximized="1"
     inkscape:current-layer="g18"
     fit-margin-top="0"
     fit-margin-left="0"
     fit-margin-right="0"
     fit-margin-bottom="0" /><g
     id="g18"
     inkscape:groupmode="layer"
     inkscape:label="20"
     transform="matrix(1.3333333,0,0,-1.3333333,-7.2711587,883.51471)"><path
       d="M 0,0 H 800 V 800 H 0 Z"
       style="fill:#ffffff;fill-opacity:1;fill-rule:nonzero;stroke:none"
       id="path20"
       inkscape:connector-curvature="0"
       clip-path="url(#clipPath8416)" /><g
       id="g22"
       transform="translate(-1e-4)"
       clip-path="url(#clipPath8412)"><g
         id="g24"
         clip-path="url(#clipPath28)"><g
           id="g30"
           transform="translate(391.3511,24.6367)"><path
             d="M 0,0 C 0.246,0.145 0.66,0.17 0.635,0.518 0.617,0.863 0.383,1.547 1.068,1.781 1.757,2.014 1.369,1.576 1.133,1.275 0.896,0.975 0.973,0.789 1.002,0.346 1.027,-0.092 0.719,-0.242 0.254,-0.459 -0.213,-0.678 -0.248,-0.146 0,0"
             style="fill:#ff4522;fill-opacity:1;fill-rule:evenodd;stroke:none"
             id="path32"
             inkscape:connector-curvature="0" /></g><g
           id="g34"
           transform="translate(380.1616,28.5508)"><path
             d="M 0,0 C 2.674,0.67 4.346,-0.1 4.346,-0.1 L 4.203,-0.871 c 0,0 -1.953,0.131 -3.504,-0.1 -1.547,-0.222 -2.252,-0.713 -2.252,-0.713 l -0.336,0.768 c 0,0 0.733,0.627 1.889,0.916"
             style="fill:#ff4522;fill-opacity:1;fill-rule:evenodd;stroke:none"
             id="path36"
             inkscape:connector-curvature="0" /></g><g
           id="g38"
           transform="translate(380.9624,29.6484)"><path
             d="M 0,0 0.377,0.137 0.873,-1.193 0.5,-1.338 Z"
             style="fill:#ff4522;fill-opacity:1;fill-rule:evenodd;stroke:none"
             id="path40"
             inkscape:connector-curvature="0" /></g><g
           id="g42"
           transform="translate(392.7412,27.1719)"><path
             d="M 0,0 C 0.377,0.021 0.701,-0.266 0.724,-0.641 0.75,-1.018 0.463,-1.34 0.084,-1.365 -0.294,-1.389 -0.619,-1.1 -0.641,-0.729 -0.666,-0.35 -0.378,-0.029 0,0"
             style="fill:#ff4522;fill-opacity:1;fill-rule:evenodd;stroke:none"
             id="path44"
             inkscape:connector-curvature="0" /></g><g
           id="g46"
           transform="translate(369.2593,24.5859)"><path
             d="M 0,0 C 0.375,0.025 0.701,-0.262 0.727,-0.637 0.748,-1.012 0.463,-1.33 0.082,-1.355 -0.293,-1.381 -0.615,-1.096 -0.643,-0.723 -0.666,-0.346 -0.377,-0.027 0,0"
             style="fill:#ff4522;fill-opacity:1;fill-rule:evenodd;stroke:none"
             id="path48"
             inkscape:connector-curvature="0" /></g><g
           id="g50"
           transform="translate(381.2905,31.3535)"><path
             d="M 0,0 C 0.6,0.033 1.119,-0.414 1.156,-1.016 1.191,-1.607 0.734,-2.127 0.133,-2.166 -0.469,-2.207 -0.98,-1.754 -1.021,-1.152 -1.062,-0.553 -0.604,-0.037 0,0"
             style="fill:#ff4522;fill-opacity:1;fill-rule:evenodd;stroke:none"
             id="path52"
             inkscape:connector-curvature="0" /></g><g
           id="g54"
           transform="translate(397.7959,23.3242)"><path
             d="m 0,0 h 0.685 v 0.865 c 0,0.899 0.11,1.614 0.338,2.145 0.225,0.529 0.617,0.914 1.16,1.158 0.543,0.238 1.291,0.359 2.233,0.359 1.683,0 2.517,-0.406 2.517,-1.236 C 6.933,3.029 6.843,2.797 6.664,2.613 6.494,2.422 6.285,2.328 6.048,2.328 5.937,2.328 5.74,2.346 5.464,2.393 5.201,2.434 4.962,2.459 4.773,2.459 4.257,2.459 3.927,2.303 3.771,1.994 3.632,1.695 3.556,1.258 3.556,0.686 V 0 H 4.257 C 5.353,0 5.896,-0.324 5.896,-0.99 5.896,-1.455 5.757,-1.752 5.464,-1.883 5.173,-2.008 4.771,-2.07 4.257,-2.07 H 3.556 v -7.608 c 0,-0.564 -0.133,-0.996 -0.41,-1.289 -0.266,-0.303 -0.613,-0.453 -1.042,-0.453 -0.409,0 -0.743,0.15 -1.018,0.453 -0.268,0.293 -0.401,0.725 -0.401,1.289 v 7.608 h -0.789 c -0.433,0 -0.756,0.091 -0.992,0.287 -0.232,0.189 -0.346,0.443 -0.346,0.756 C -1.442,-0.34 -0.963,0 0,0"
             style="fill:#ff4522;fill-opacity:1;fill-rule:nonzero;stroke:none"
             id="path56"
             inkscape:connector-curvature="0" /></g><g
           id="g58"
           transform="translate(407.1943,16.0469)"><path
             d="M 0,0 V -2.4 C 0,-2.979 -0.147,-3.414 -0.416,-3.705 -0.688,-4 -1.032,-4.143 -1.452,-4.143 c -0.423,0 -0.761,0.143 -1.025,0.446 -0.262,0.293 -0.398,0.722 -0.398,1.297 v 7.996 c 0,1.291 0.466,1.939 1.396,1.939 0.479,0 0.82,-0.152 1.033,-0.451 0.209,-0.307 0.323,-0.75 0.348,-1.34 0.342,0.59 0.693,1.033 1.053,1.34 C 1.32,7.383 1.8,7.535 2.402,7.535 3.011,7.535 3.591,7.383 4.158,7.084 4.729,6.777 5.013,6.375 5.013,5.883 5.013,5.529 4.89,5.24 4.652,5.014 4.406,4.785 4.146,4.67 3.869,4.67 3.759,4.67 3.505,4.736 3.103,4.869 2.699,4.994 2.343,5.059 2.035,5.059 1.615,5.059 1.271,4.949 1.009,4.73 0.74,4.506 0.531,4.18 0.382,3.746 0.24,3.311 0.14,2.793 0.08,2.195 0.023,1.592 0,0.863 0,0"
             style="fill:#ff4522;fill-opacity:1;fill-rule:nonzero;stroke:none"
             id="path60"
             inkscape:connector-curvature="0" /></g><g
           id="g62"
           transform="translate(414.7744,18.668)"><path
             d="M 0,0 H 5.207 C 5.136,0.979 4.875,1.715 4.414,2.201 3.953,2.688 3.353,2.928 2.599,2.928 1.884,2.928 1.296,2.688 0.837,2.193 0.377,1.693 0.099,0.965 0,0 M 5.619,-1.631 H 0 c 0.011,-0.654 0.138,-1.232 0.394,-1.726 0.256,-0.497 0.6,-0.872 1.022,-1.127 0.427,-0.252 0.892,-0.377 1.402,-0.377 0.346,0 0.66,0.041 0.945,0.125 0.28,0.074 0.557,0.205 0.824,0.377 0.267,0.172 0.51,0.351 0.733,0.552 0.226,0.196 0.519,0.463 0.873,0.799 0.154,0.125 0.363,0.19 0.633,0.19 0.295,0 0.531,-0.08 0.717,-0.246 0.185,-0.161 0.271,-0.385 0.271,-0.684 0,-0.26 -0.098,-0.561 -0.295,-0.908 C 7.31,-5.008 7.005,-5.334 6.593,-5.654 6.179,-5.971 5.662,-6.242 5.046,-6.451 4.425,-6.66 3.709,-6.764 2.904,-6.764 c -1.848,0 -3.281,0.522 -4.301,1.577 -1.023,1.054 -1.539,2.478 -1.539,4.279 0,0.846 0.127,1.637 0.383,2.367 0.248,0.729 0.619,1.344 1.107,1.869 0.481,0.514 1.073,0.912 1.785,1.19 C 1.046,4.793 1.83,4.932 2.693,4.932 3.814,4.932 4.775,4.697 5.58,4.221 6.38,3.746 6.988,3.137 7.384,2.387 7.781,1.635 7.982,0.869 7.982,0.09 7.982,-0.625 7.773,-1.096 7.359,-1.309 6.947,-1.525 6.369,-1.631 5.619,-1.631"
             style="fill:#ff4522;fill-opacity:1;fill-rule:nonzero;stroke:none"
             id="path64"
             inkscape:connector-curvature="0" /></g><g
           id="g66"
           transform="translate(426.7187,18.668)"><path
             d="M 0,0 H 5.202 C 5.135,0.979 4.866,1.715 4.411,2.201 3.946,2.688 3.348,2.928 2.596,2.928 1.879,2.928 1.295,2.688 0.831,2.193 0.375,1.693 0.092,0.965 0,0 M 5.614,-1.631 H 0 c 0.008,-0.654 0.139,-1.232 0.393,-1.726 0.253,-0.497 0.596,-0.872 1.018,-1.127 0.425,-0.252 0.894,-0.377 1.406,-0.377 0.342,0 0.66,0.041 0.941,0.125 0.282,0.074 0.555,0.205 0.826,0.377 0.268,0.172 0.51,0.351 0.735,0.552 0.219,0.196 0.517,0.463 0.871,0.799 0.152,0.125 0.363,0.19 0.631,0.19 0.299,0 0.533,-0.08 0.722,-0.246 0.18,-0.161 0.268,-0.385 0.268,-0.684 0,-0.26 -0.102,-0.561 -0.303,-0.908 C 7.311,-5.008 7.002,-5.334 6.586,-5.654 6.176,-5.971 5.657,-6.242 5.043,-6.451 4.426,-6.66 3.704,-6.764 2.897,-6.764 c -1.842,0 -3.275,0.522 -4.301,1.577 -1.023,1.054 -1.535,2.478 -1.535,4.279 0,0.846 0.126,1.637 0.381,2.367 0.25,0.729 0.619,1.344 1.103,1.869 0.481,0.514 1.077,0.912 1.789,1.19 C 1.04,4.793 1.827,4.932 2.688,4.932 3.809,4.932 4.77,4.697 5.584,4.221 6.383,3.746 6.983,3.137 7.379,2.387 7.774,1.635 7.981,0.869 7.981,0.09 7.981,-0.625 7.771,-1.096 7.36,-1.309 6.944,-1.525 6.364,-1.631 5.614,-1.631"
             style="fill:#ff4522;fill-opacity:1;fill-rule:nonzero;stroke:none"
             id="path68"
             inkscape:connector-curvature="0" /></g><g
           id="g70"
           transform="translate(444.251,17.7949)"><path
             d="m 0,0 c 0,0.758 -0.116,1.406 -0.35,1.947 -0.229,0.549 -0.549,0.959 -0.961,1.254 -0.404,0.291 -0.863,0.436 -1.363,0.436 -0.789,0 -1.457,-0.311 -2,-0.936 -0.545,-0.625 -0.817,-1.541 -0.817,-2.758 0,-1.138 0.27,-2.027 0.811,-2.668 0.541,-0.63 1.205,-0.947 2.006,-0.947 0.478,0 0.92,0.141 1.328,0.412 0.409,0.28 0.736,0.694 0.978,1.25 C -0.122,-1.457 0,-0.783 0,0 M -5.629,4.172 V 3.826 c 0.537,0.664 1.105,1.153 1.691,1.467 0.57,0.311 1.234,0.473 1.969,0.473 0.881,0 1.701,-0.231 2.447,-0.686 C 1.22,4.619 1.802,3.959 2.232,3.078 2.666,2.199 2.884,1.166 2.884,-0.035 2.884,-0.916 2.759,-1.727 2.513,-2.471 2.265,-3.209 1.916,-3.83 1.484,-4.328 1.048,-4.826 0.535,-5.219 -0.055,-5.488 c -0.598,-0.27 -1.229,-0.403 -1.914,-0.403 -0.817,0 -1.51,0.164 -2.063,0.495 -0.56,0.322 -1.088,0.814 -1.597,1.449 v -4.311 c 0,-1.262 -0.463,-1.892 -1.377,-1.892 -0.543,0 -0.893,0.16 -1.075,0.486 -0.169,0.33 -0.259,0.799 -0.259,1.428 v 12.39 c 0,0.547 0.117,0.955 0.355,1.225 0.238,0.266 0.565,0.408 0.979,0.408 0.408,0 0.736,-0.142 0.99,-0.418 0.262,-0.279 0.387,-0.674 0.387,-1.197"
             style="fill:#ff4522;fill-opacity:1;fill-rule:nonzero;stroke:none"
             id="path72"
             inkscape:connector-curvature="0" /></g><g
           id="g74"
           transform="translate(451.4463,21.9492)"><path
             d="m 0,0 v -8.303 c 0,-0.574 -0.137,-1.004 -0.409,-1.297 -0.277,-0.302 -0.621,-0.445 -1.041,-0.445 -0.425,0 -0.759,0.15 -1.029,0.453 -0.256,0.305 -0.393,0.731 -0.393,1.289 v 8.223 c 0,0.56 0.137,0.99 0.393,1.273 0.27,0.297 0.604,0.44 1.029,0.44 0.42,0 0.764,-0.143 1.041,-0.44 C -0.137,0.91 0,0.506 0,0 m -1.422,2.971 c -0.401,0 -0.739,0.125 -1.02,0.363 -0.287,0.254 -0.43,0.594 -0.43,1.039 0,0.408 0.145,0.744 0.438,1.006 0.289,0.264 0.631,0.398 1.012,0.398 0.377,0 0.703,-0.121 0.99,-0.357 C -0.145,5.178 0,4.83 0,4.373 0,3.934 -0.141,3.588 -0.42,3.338 -0.7,3.096 -1.03,2.971 -1.422,2.971"
             style="fill:#ff4522;fill-opacity:1;fill-rule:nonzero;stroke:none"
             id="path76"
             inkscape:connector-curvature="0" /></g><g
           id="g78"
           transform="translate(460.7031,13.2129)"><path
             d="M 0,0 -2.529,4.17 -4.091,2.699 V 0.412 c 0,-0.553 -0.143,-0.973 -0.438,-1.267 -0.283,-0.303 -0.625,-0.454 -1.002,-0.454 -0.445,0 -0.789,0.143 -1.043,0.446 -0.248,0.293 -0.379,0.722 -0.379,1.297 v 12.25 c 0,0.634 0.125,1.121 0.366,1.451 0.248,0.338 0.603,0.504 1.056,0.504 0.44,0 0.789,-0.151 1.049,-0.459 0.26,-0.295 0.391,-0.742 0.391,-1.33 V 5.885 l 3.23,3.388 c 0.401,0.418 0.703,0.707 0.916,0.864 0.213,0.15 0.465,0.232 0.762,0.232 0.363,0 0.66,-0.117 0.906,-0.342 C 1.956,9.797 2.075,9.512 2.075,9.168 2.075,8.754 1.686,8.184 0.909,7.484 L -0.615,6.09 2.327,1.457 C 2.54,1.113 2.702,0.854 2.797,0.674 2.891,0.498 2.94,0.322 2.94,0.162 2.94,-0.295 2.815,-0.65 2.565,-0.918 2.315,-1.18 1.981,-1.309 1.581,-1.309 c -0.35,0 -0.62,0.088 -0.809,0.284 C 0.581,-0.832 0.319,-0.492 0,0"
             style="fill:#ff4522;fill-opacity:1;fill-rule:nonzero;stroke:none"
             id="path80"
             inkscape:connector-curvature="0" /></g><g
           id="g82"
           transform="translate(466.9404,11.9043)"><path
             d="m 0,0 c -0.436,0 -0.807,0.139 -1.123,0.42 -0.314,0.277 -0.475,0.674 -0.475,1.182 0,0.425 0.156,0.794 0.455,1.099 0.303,0.311 0.674,0.461 1.115,0.461 0.44,0 0.817,-0.15 1.133,-0.451 C 1.414,2.404 1.576,2.031 1.576,1.602 1.576,1.098 1.414,0.709 1.105,0.428 0.789,0.139 0.421,0 0,0"
             style="fill:#ff4522;fill-opacity:1;fill-rule:nonzero;stroke:none"
             id="path84"
             inkscape:connector-curvature="0" /></g><g
           id="g86"
           transform="translate(481.2217,15.4609)"><path
             d="m 0,0 c 0,-0.361 -0.108,-0.742 -0.321,-1.146 -0.213,-0.413 -0.541,-0.793 -0.984,-1.168 -0.434,-0.366 -0.986,-0.661 -1.654,-0.887 -0.666,-0.223 -1.416,-0.338 -2.245,-0.338 -1.779,0 -3.166,0.518 -4.162,1.553 -0.992,1.035 -1.492,2.422 -1.492,4.158 0,1.185 0.225,2.223 0.686,3.131 0.451,0.898 1.111,1.601 1.976,2.095 0.86,0.497 1.895,0.741 3.092,0.741 0.744,0 1.424,-0.11 2.049,-0.327 0.621,-0.214 1.144,-0.5 1.578,-0.837 0.426,-0.352 0.758,-0.713 0.986,-1.098 0.227,-0.393 0.34,-0.756 0.34,-1.098 0,-0.338 -0.125,-0.633 -0.381,-0.867 -0.259,-0.242 -0.572,-0.363 -0.929,-0.363 -0.241,0 -0.44,0.066 -0.6,0.187 -0.158,0.125 -0.335,0.323 -0.531,0.596 -0.35,0.535 -0.715,0.934 -1.098,1.197 -0.379,0.272 -0.867,0.403 -1.456,0.403 -0.843,0 -1.534,-0.332 -2.05,-0.996 -0.519,-0.659 -0.781,-1.573 -0.781,-2.717 0,-0.537 0.072,-1.041 0.205,-1.49 0.126,-0.45 0.322,-0.836 0.576,-1.159 0.254,-0.316 0.555,-0.554 0.912,-0.722 0.36,-0.172 0.754,-0.252 1.18,-0.252 0.578,0 1.07,0.136 1.477,0.404 0.418,0.266 0.777,0.674 1.095,1.219 0.174,0.32 0.358,0.574 0.559,0.754 0.203,0.179 0.453,0.275 0.748,0.275 0.355,0 0.648,-0.135 0.873,-0.4 C -0.118,0.586 0,0.293 0,0"
             style="fill:#ff4522;fill-opacity:1;fill-rule:nonzero;stroke:none"
             id="path88"
             inkscape:connector-curvature="0" /></g><g
           id="g90"
           transform="translate(490.7275,17.7383)"><path
             d="M 0,0 C 0,1.172 -0.26,2.078 -0.772,2.732 -1.286,3.391 -1.979,3.717 -2.85,3.717 -3.411,3.717 -3.903,3.574 -4.334,3.281 -4.764,2.988 -5.086,2.564 -5.321,1.99 -5.551,1.422 -5.668,0.76 -5.668,0 c 0,-0.754 0.111,-1.4 0.341,-1.963 0.231,-0.56 0.555,-0.994 0.981,-1.291 0.428,-0.295 0.924,-0.449 1.496,-0.449 0.871,0 1.564,0.328 2.078,0.986 C -0.26,-2.059 0,-1.154 0,0 M 2.884,0 C 2.884,-0.854 2.748,-1.641 2.49,-2.365 2.216,-3.088 1.834,-3.711 1.326,-4.223 0.824,-4.746 0.216,-5.143 -0.479,-5.418 -1.187,-5.695 -1.975,-5.834 -2.85,-5.834 c -0.867,0 -1.65,0.139 -2.344,0.42 -0.691,0.277 -1.297,0.682 -1.804,1.201 -0.51,0.527 -0.893,1.145 -1.161,1.854 -0.255,0.714 -0.392,1.5 -0.392,2.359 0,0.869 0.142,1.668 0.4,2.393 0.266,0.726 0.651,1.339 1.151,1.847 0.5,0.512 1.097,0.91 1.806,1.186 0.711,0.275 1.494,0.418 2.344,0.418 0.871,0 1.66,-0.143 2.371,-0.422 C 0.226,5.141 0.828,4.738 1.339,4.229 1.847,3.699 2.229,3.086 2.492,2.373 2.75,1.654 2.884,0.865 2.884,0"
             style="fill:#ff4522;fill-opacity:1;fill-rule:nonzero;stroke:none"
             id="path92"
             inkscape:connector-curvature="0" /></g><g
           id="g94"
           transform="translate(504.5605,17.5293)"><path
             d="m 0,0 v -3.818 c 0,-0.604 -0.132,-1.049 -0.406,-1.354 -0.279,-0.303 -0.633,-0.453 -1.084,-0.453 -0.435,0 -0.791,0.15 -1.051,0.453 -0.275,0.305 -0.412,0.75 -0.412,1.354 v 4.576 c 0,0.722 -0.025,1.287 -0.072,1.689 C -3.076,2.838 -3.21,3.168 -3.427,3.428 -3.646,3.682 -3.99,3.813 -4.457,3.813 -5.4,3.813 -6.017,3.49 -6.312,2.838 -6.607,2.199 -6.763,1.27 -6.763,0.059 v -3.877 c 0,-0.594 -0.135,-1.045 -0.401,-1.35 -0.273,-0.307 -0.627,-0.457 -1.068,-0.457 -0.434,0 -0.793,0.15 -1.072,0.457 -0.276,0.305 -0.418,0.756 -0.418,1.35 V 4.4 c 0,0.536 0.129,0.95 0.373,1.231 0.256,0.279 0.582,0.422 0.988,0.422 0.393,0 0.719,-0.137 0.986,-0.397 0.262,-0.26 0.391,-0.625 0.391,-1.09 V 4.295 c 0.504,0.59 1.035,1.035 1.6,1.31 0.572,0.286 1.197,0.426 1.898,0.426 0.719,0 1.34,-0.146 1.856,-0.429 0.521,-0.293 0.945,-0.731 1.283,-1.307 0.49,0.586 1.008,1.025 1.562,1.31 0.555,0.28 1.168,0.426 1.84,0.426 0.783,0 1.465,-0.162 2.033,-0.467 C 5.651,5.26 6.073,4.811 6.354,4.246 6.604,3.721 6.723,2.902 6.723,1.789 v -5.607 c 0,-0.604 -0.137,-1.049 -0.41,-1.354 -0.268,-0.303 -0.633,-0.453 -1.084,-0.453 -0.434,0 -0.789,0.15 -1.064,0.457 -0.278,0.305 -0.415,0.756 -0.415,1.35 V 1.014 C 3.75,1.631 3.721,2.123 3.67,2.498 3.616,2.867 3.477,3.18 3.245,3.432 3.012,3.682 2.657,3.813 2.19,3.813 1.813,3.813 1.452,3.691 1.112,3.471 0.772,3.248 0.508,2.941 0.313,2.572 0.108,2.084 0,1.229 0,0"
             style="fill:#ff4522;fill-opacity:1;fill-rule:nonzero;stroke:none"
             id="path96"
             inkscape:connector-curvature="0" /></g><g
           id="g98"
           transform="translate(377.9116,10.8984)"><path
             d="m 0,0 c 0,0 -1.568,0.252 -3.098,1.924 -1.539,1.687 -1.798,3.472 -1.798,3.472 0,0 1.953,-0.459 3.355,-0.615 2.475,-0.281 4.701,-0.125 5.75,-0.01 2.273,0.252 3.482,0.668 3.975,0.79 2.902,0.699 5.693,2.576 5.693,2.576 0,0 0.355,-2.18 -1.285,-4.6 C 11.951,2.594 10.676,1.508 9.209,0.76 4.182,-1.385 0,0 0,0"
             style="fill:#ff4522;fill-opacity:1;fill-rule:evenodd;stroke:none"
             id="path100"
             inkscape:connector-curvature="0" /></g><g
           id="g102"
           transform="translate(386.9429,20.7266)"><path
             d="m 0,0 c -1.041,-0.059 -1.937,0.725 -2.004,1.76 -0.064,1.033 0.731,1.929 1.77,1.992 C 0.805,3.822 1.707,3.033 1.77,2.002 1.836,0.965 1.039,0.068 0,0 m -8.453,-2.123 c -1.654,-0.106 -3.078,1.139 -3.18,2.789 -0.103,1.641 1.156,3.066 2.809,3.166 1.656,0.113 3.084,-1.139 3.181,-2.779 0.106,-1.649 -1.156,-3.073 -2.81,-3.176 M 2.838,2.568 C 2.301,3.223 0.5,6.305 -3.141,6.754 -4.07,6.865 -8.994,6.672 -11.947,3.941 c -0.291,-0.277 -1.791,-1.591 -2.287,-4.045 -0.389,-1.894 0.246,-4.027 0.246,-4.027 0,0 3.275,-0.683 5.742,-0.619 3.912,0.096 5.883,0.443 7.928,1.062 3.011,0.911 5.146,2.438 5.146,2.438 0,0 -1.447,3.16 -1.99,3.818"
             style="fill:#ff4522;fill-opacity:1;fill-rule:evenodd;stroke:none"
             id="path104"
             inkscape:connector-curvature="0" /></g><g
           id="g106"
           transform="translate(388.3667,25.4297)"><path
             d="m 0,0 0.951,1.141 c 0,0 1.313,-0.649 2.16,-1.864 0.838,-1.213 1.387,-2.322 1.387,-2.322 l -1.57,-0.953 c 0,0 -0.485,1.17 -1.217,2.109 C 0.984,-0.955 0,0 0,0"
             style="fill:#ff4522;fill-opacity:1;fill-rule:evenodd;stroke:none"
             id="path108"
             inkscape:connector-curvature="0" /></g><g
           id="g110"
           transform="translate(373.9097,23.9355)"><path
             d="m 0,0 c 0,0 -1.1,-1.279 -1.383,-2.434 -0.277,-1.16 -0.221,-2.554 -0.221,-2.554 l -1.628,0.56 c 0,0 -0.094,1.604 0.648,2.897 0.824,1.439 1.879,2.08 1.879,2.08 z"
             style="fill:#ff4522;fill-opacity:1;fill-rule:evenodd;stroke:none"
             id="path112"
             inkscape:connector-curvature="0" /></g><g
           id="g114"
           transform="translate(371.5112,22.4805)"><path
             d="m 0,0 c -0.266,0.172 -0.291,0.584 -0.5,0.854 -0.209,0.277 -0.262,0.111 -0.74,0.111 -0.479,0 -0.492,0.226 -0.627,0.344 -0.137,0.121 -0.201,-0.366 -0.201,-0.366 0,0 0.088,-0.406 0.601,-0.435 0.51,-0.029 0.498,0.221 0.717,-0.238 0.221,-0.465 0.656,-0.817 0.656,-0.817 0,0 0.362,0.371 0.094,0.547"
             style="fill:#ff4522;fill-opacity:1;fill-rule:evenodd;stroke:none"
             id="path116"
             inkscape:connector-curvature="0" /></g><g
           id="g118"
           transform="translate(292.2847,18.1914)"><path
             d="m 0,0 c -1.045,0 -1.562,-1.094 -1.562,-2.043 0,-0.934 0.517,-2.025 1.562,-2.025 1.098,0 1.572,1.115 1.572,2.095 C 1.572,-1 1.072,0 0,0 m 3.582,-4.707 c 0,-0.672 -0.422,-1.113 -1.008,-1.113 -0.553,0 -0.875,0.3 -1.002,0.836 C 1.195,-5.6 0.418,-5.9 -0.266,-5.9 c -2.021,0 -3.302,1.871 -3.302,3.769 0,1.957 1.072,3.975 3.234,3.975 0.695,0 1.377,-0.242 1.906,-0.699 v 2.734 c 0,0.668 0.418,1.109 1.002,1.109 0.586,0 1.008,-0.441 1.008,-1.109 z"
             style="fill:#ff4522;fill-opacity:1;fill-rule:nonzero;stroke:none"
             id="path120"
             inkscape:connector-curvature="0" /></g><g
           id="g122"
           transform="translate(301.7729,16.8301)"><path
             d="M 0,0 C -0.109,0.879 -0.668,1.529 -1.604,1.529 -2.494,1.529 -3.096,0.85 -3.191,0 Z m -3.152,-1.34 c 0.144,-0.984 0.963,-1.449 1.902,-1.449 1.027,0 1.736,0.805 2.27,0.805 0.429,0 0.816,-0.426 0.816,-0.866 0,-0.863 -1.779,-1.689 -3.272,-1.689 -2.259,0 -3.761,1.641 -3.761,3.857 0,2.036 1.476,3.887 3.593,3.887 2.174,0 3.61,-1.976 3.61,-3.652 0,-0.598 -0.266,-0.893 -0.877,-0.893 z"
             style="fill:#ff4522;fill-opacity:1;fill-rule:nonzero;stroke:none"
             id="path124"
             inkscape:connector-curvature="0" /></g><g
           id="g126"
           transform="translate(308.7144,17.6934)"><path
             d="m 0,0 c -0.377,0 -1.143,0.59 -1.799,0.59 -0.361,0 -0.683,-0.17 -0.683,-0.565 0,-0.933 3.484,-0.793 3.484,-3.078 0,-1.336 -1.127,-2.349 -2.859,-2.349 -1.127,0 -2.797,0.634 -2.797,1.541 0,0.304 0.304,0.886 0.861,0.886 0.781,0 1.129,-0.677 2.074,-0.677 0.615,0 0.797,0.197 0.797,0.574 0,0.92 -3.482,0.779 -3.482,3.078 0,1.393 1.129,2.342 2.718,2.342 0.987,0 2.506,-0.461 2.506,-1.453 C 0.82,0.434 0.473,0 0,0"
             style="fill:#ff4522;fill-opacity:1;fill-rule:nonzero;stroke:none"
             id="path128"
             inkscape:connector-curvature="0" /></g><g
           id="g130"
           transform="translate(310.3979,18.832)"><path
             d="M 0,0 C 0,0.67 0.418,1.119 1.004,1.119 1.588,1.119 2.006,0.67 2.006,0 V -5.348 C 2.006,-6.021 1.588,-6.461 1.004,-6.461 0.418,-6.461 0,-6.021 0,-5.348 Z m 2.133,3.027 c 0,-0.629 -0.5,-1.158 -1.129,-1.158 -0.6,0 -1.129,0.545 -1.129,1.158 0,0.571 0.529,1.1 1.129,1.1 0.598,0 1.129,-0.512 1.129,-1.1"
             style="fill:#ff4522;fill-opacity:1;fill-rule:nonzero;stroke:none"
             id="path132"
             inkscape:connector-curvature="0" /></g><g
           id="g134"
           transform="translate(316.7925,18.1914)"><path
             d="m 0,0 c -1.043,0 -1.557,-1.084 -1.557,-2.018 0,-1.074 0.514,-2.05 1.557,-2.05 1.072,0 1.576,1.007 1.576,1.984 C 1.576,-1.113 1.104,0 0,0 m 3.584,-5.152 c 0,-2.412 -1.576,-3.629 -3.861,-3.629 -0.821,0 -3.164,0.408 -3.164,1.508 0,0.375 0.418,0.878 0.812,0.878 0.639,0 1.35,-0.623 2.506,-0.623 0.978,0 1.699,0.563 1.699,1.588 v 0.473 H 1.549 C 1.133,-5.57 0.447,-5.9 -0.471,-5.9 c -2.103,0 -3.093,1.845 -3.093,3.841 0,2.02 1.277,3.903 3.3,3.903 0.686,0 1.461,-0.307 1.84,-0.918 0.127,0.525 0.445,0.834 1.004,0.834 0.584,0 1.004,-0.449 1.004,-1.119 z"
             style="fill:#ff4522;fill-opacity:1;fill-rule:nonzero;stroke:none"
             id="path136"
             inkscape:connector-curvature="0" /></g><g
           id="g138"
           transform="translate(321.519,18.832)"><path
             d="m 0,0 c 0,0.67 0.416,1.119 1.002,1.119 0.514,0 0.852,-0.277 0.918,-0.744 0.393,0.547 0.988,0.828 1.937,0.828 1.575,0 2.745,-1.004 2.745,-2.701 v -3.85 c 0,-0.673 -0.413,-1.113 -1,-1.113 -0.582,0 -1.006,0.44 -1.006,1.113 v 3.496 c 0,0.934 -0.582,1.379 -1.309,1.379 -0.824,0 -1.281,-0.599 -1.281,-1.379 v -3.496 c 0,-0.673 -0.42,-1.113 -1.004,-1.113 C 0.416,-6.461 0,-6.021 0,-5.348 Z"
             style="fill:#ff4522;fill-opacity:1;fill-rule:nonzero;stroke:none"
             id="path140"
             inkscape:connector-curvature="0" /></g><g
           id="g142"
           transform="translate(334.0308,16.8301)"><path
             d="M 0,0 C -0.111,0.879 -0.67,1.529 -1.604,1.529 -2.496,1.529 -3.096,0.85 -3.191,0 Z m -3.15,-1.34 c 0.14,-0.984 0.961,-1.449 1.896,-1.449 1.033,0 1.742,0.805 2.27,0.805 0.433,0 0.826,-0.426 0.826,-0.866 0,-0.863 -1.787,-1.689 -3.278,-1.689 -2.259,0 -3.761,1.641 -3.761,3.857 0,2.036 1.476,3.887 3.593,3.887 2.176,0 3.61,-1.976 3.61,-3.652 0,-0.598 -0.266,-0.893 -0.877,-0.893 z"
             style="fill:#ff4522;fill-opacity:1;fill-rule:nonzero;stroke:none"
             id="path144"
             inkscape:connector-curvature="0" /></g><g
           id="g146"
           transform="translate(340.0229,18.1914)"><path
             d="m 0,0 c -1.045,0 -1.561,-1.094 -1.561,-2.043 0,-0.934 0.516,-2.025 1.561,-2.025 1.098,0 1.574,1.115 1.574,2.095 C 1.574,-1 1.072,0 0,0 m 3.58,-4.707 c 0,-0.672 -0.418,-1.113 -1.006,-1.113 -0.554,0 -0.871,0.3 -1,0.836 C 1.195,-5.6 0.418,-5.9 -0.266,-5.9 c -2.019,0 -3.3,1.871 -3.3,3.769 0,1.957 1.072,3.975 3.234,3.975 0.693,0 1.377,-0.242 1.906,-0.699 v 2.734 c 0,0.668 0.418,1.109 1,1.109 0.588,0 1.006,-0.441 1.006,-1.109 z"
             style="fill:#ff4522;fill-opacity:1;fill-rule:nonzero;stroke:none"
             id="path148"
             inkscape:connector-curvature="0" /></g><g
           id="g150"
           transform="translate(352.062,14.123)"><path
             d="m 0,0 c 1.045,0 1.559,1.092 1.559,2.025 0,0.95 -0.514,2.043 -1.559,2.043 -1.072,0 -1.574,-1 -1.574,-1.972 C -1.574,1.115 -1.098,0 0,0 m -3.584,7.947 c 0,0.668 0.422,1.11 1.008,1.11 0.586,0 1.002,-0.442 1.002,-1.11 V 5.213 c 0.531,0.457 1.211,0.699 1.908,0.699 2.16,0 3.232,-2.017 3.232,-3.976 0,-1.897 -1.277,-3.768 -3.302,-3.768 -0.682,0 -1.463,0.301 -1.838,0.916 -0.127,-0.535 -0.446,-0.836 -1.002,-0.836 -0.586,0 -1.008,0.44 -1.008,1.113 z"
             style="fill:#ff4522;fill-opacity:1;fill-rule:nonzero;stroke:none"
             id="path152"
             inkscape:connector-curvature="0" /></g><g
           id="g154"
           transform="translate(355.978,18.5723)"><path
             d="m 0,0 c -0.057,0.15 -0.1,0.307 -0.1,0.514 0,0.506 0.53,0.865 0.95,0.865 0.484,0 0.834,-0.268 1.004,-0.709 L 3.229,-3.111 4.709,0.67 C 4.877,1.111 5.223,1.379 5.713,1.379 6.131,1.379 6.658,1.02 6.658,0.514 6.658,0.307 6.631,0.15 6.562,0 L 3.203,-8.363 C 3.041,-8.779 2.73,-9.162 2.256,-9.162 c -0.682,0 -1.043,0.437 -1.043,0.863 0,0.203 0.057,0.408 0.121,0.59 l 0.881,2.176 z"
             style="fill:#ff4522;fill-opacity:1;fill-rule:nonzero;stroke:none"
             id="path156"
             inkscape:connector-curvature="0" /></g></g></g><g
       id="g158"
       transform="translate(0.5)"
       clip-path="url(#clipPath8408)"><g
         id="g160"
         clip-path="url(#clipPath164)"><g
           id="g166"
           transform="translate(500.2207,295)"><path
             d="m 0,0 h -4.01 c 0,0 -23.551,6.271 -23.551,72.032 0,19.371 -104.001,19.359 -104.001,-1.442 C -131.562,7.273 -155.727,0 -155.727,0 h -3.253 c -2.903,0 -5.241,-2.268 -5.241,-5.17 v -2.627 c 0,-2.902 2.338,-5.203 5.241,-5.203 H 0 c 2.902,0 5.779,2.301 5.779,5.203 V -5.17 C 5.779,-2.268 2.902,0 0,0"
             style="fill:#4d4d4d;fill-opacity:1;fill-rule:nonzero;stroke:none"
             id="path168"
             inkscape:connector-curvature="0" /></g><g
           id="g170"
           transform="translate(605.2031,624)"><path
             d="m 0,0 h -369.606 c -7.122,0 -13.597,-3.738 -13.597,-10.858 v -223.601 -34.266 c 0,-7.122 6.475,-16.275 13.597,-16.275 H 0 c 7.123,0 10.797,9.153 10.797,16.275 v 34.266 223.601 C 10.797,-3.738 7.123,0 0,0"
             style="fill:#4d4d4d;fill-opacity:1;fill-rule:nonzero;stroke:none"
             id="path172"
             inkscape:connector-curvature="0" /></g><path
           d="M 597,399 H 241 v 204 h 356 z"
           style="fill:#f2f2f2;fill-opacity:1;fill-rule:nonzero;stroke:none"
           id="path174"
           inkscape:connector-curvature="0" /><g
           id="g176"
           transform="translate(436.5371,368.2676)"><path
             d="m 0,0 c 0,-8.917 -7.229,-16.141 -16.141,-16.141 -8.91,0 -16.136,7.224 -16.136,16.141 0,8.914 7.226,16.139 16.136,16.139 C -7.229,16.139 0,8.914 0,0"
             style="fill:#b3b3b3;fill-opacity:1;fill-rule:nonzero;stroke:none"
             id="path178"
             inkscape:connector-curvature="0" /></g><g
           id="g180"
           transform="translate(379,574.2808)"><path
             d="M 0,0 C 0,-2.917 -2.405,-5.281 -5.839,-5.281 H -72.283 C -75.717,-5.281 -79,-2.917 -79,0 v 10.438 c 0,2.917 3.283,5.281 6.717,5.281 H -5.839 C -2.405,15.719 0,13.355 0,10.438 Z"
             style="fill:#ff4522;fill-opacity:1;fill-rule:nonzero;stroke:none"
             id="path182"
             inkscape:connector-curvature="0" /></g><g
           id="g184"
           transform="translate(537,507.2808)"><path
             d="m 0,0 c 0,-2.917 -2.648,-5.281 -6.081,-5.281 h -224.203 c -3.433,0 -6.716,2.364 -6.716,5.281 v 49.438 c 0,2.917 3.283,5.281 6.716,5.281 H -6.081 C -2.648,54.719 0,52.355 0,49.438 Z"
             style="fill:#47dee5;fill-opacity:1;fill-rule:nonzero;stroke:none"
             id="path186"
             inkscape:connector-curvature="0" /></g><g
           id="g188"
           transform="translate(373,465.2808)"><path
             d="M 0,0 C 0,-2.917 -2.292,-5.281 -5.725,-5.281 H -66.283 C -69.717,-5.281 -73,-2.917 -73,0 v 26.438 c 0,2.917 3.283,5.281 6.717,5.281 H -5.725 C -2.292,31.719 0,29.355 0,26.438 Z"
             style="fill:#999999;fill-opacity:1;fill-rule:nonzero;stroke:none"
             id="path190"
             inkscape:connector-curvature="0" /></g><g
           id="g192"
           transform="translate(453,465.2808)"><path
             d="M 0,0 C 0,-2.917 -2.236,-5.281 -5.669,-5.281 H -66.228 C -69.661,-5.281 -73,-2.917 -73,0 v 26.438 c 0,2.917 3.339,5.281 6.772,5.281 H -5.669 C -2.236,31.719 0,29.355 0,26.438 Z"
             style="fill:#999999;fill-opacity:1;fill-rule:nonzero;stroke:none"
             id="path194"
             inkscape:connector-curvature="0" /></g><g
           id="g196"
           transform="translate(537,465.2808)"><path
             d="m 0,0 c 0,-2.917 -2.648,-5.281 -6.081,-5.281 h -60.56 C -70.073,-5.281 -73,-2.917 -73,0 v 26.438 c 0,2.917 2.927,5.281 6.359,5.281 h 60.56 C -2.648,31.719 0,29.355 0,26.438 Z"
             style="fill:#999999;fill-opacity:1;fill-rule:nonzero;stroke:none"
             id="path198"
             inkscape:connector-curvature="0" /></g><g
           id="g200"
           transform="translate(453,450.0132)"><path
             d="M 0,0 C 0,-1.215 -0.669,-2.013 -2.06,-2.013 H -69.555 C -70.945,-2.013 -73,-1.215 -73,0 v 0.88 c 0,1.216 2.055,2.107 3.445,2.107 H -2.06 C -0.669,2.987 0,2.096 0,0.88 Z"
             style="fill:#b3b3b3;fill-opacity:1;fill-rule:nonzero;stroke:none"
             id="path202"
             inkscape:connector-curvature="0" /></g><g
           id="g204"
           transform="translate(453,441.2124)"><path
             d="M 0,0 C 0,-1.215 -0.669,-2.212 -2.06,-2.212 H -69.555 C -70.945,-2.212 -73,-1.215 -73,0 v 0.88 c 0,1.215 2.055,1.908 3.445,1.908 H -2.06 C -0.669,2.788 0,2.095 0,0.88 Z"
             style="fill:#b3b3b3;fill-opacity:1;fill-rule:nonzero;stroke:none"
             id="path206"
             inkscape:connector-curvature="0" /></g><g
           id="g208"
           transform="translate(453,432.4111)"><path
             d="M 0,0 C 0,-1.215 -0.669,-2.411 -2.06,-2.411 H -69.555 C -70.945,-2.411 -73,-1.215 -73,0 v 0.88 c 0,1.215 2.055,1.709 3.445,1.709 H -2.06 C -0.669,2.589 0,2.095 0,0.88 Z"
             style="fill:#b3b3b3;fill-opacity:1;fill-rule:nonzero;stroke:none"
             id="path210"
             inkscape:connector-curvature="0" /></g><g
           id="g212"
           transform="translate(453,423.6099)"><path
             d="M 0,0 C 0,-1.215 -0.669,-2.61 -2.06,-2.61 H -69.555 C -70.945,-2.61 -73,-1.215 -73,0 v 0.88 c 0,1.215 2.055,2.51 3.445,2.51 H -2.06 C -0.669,3.39 0,2.095 0,0.88 Z"
             style="fill:#b3b3b3;fill-opacity:1;fill-rule:nonzero;stroke:none"
             id="path214"
             inkscape:connector-curvature="0" /></g><g
           id="g216"
           transform="translate(420,414.8086)"><path
             d="M 0,0 C 0,-1.215 -0.826,-1.809 -2.216,-1.809 H -36.555 C -37.945,-1.809 -40,-1.215 -40,0 v 0.88 c 0,1.216 2.055,2.311 3.445,2.311 H -2.216 C -0.826,3.191 0,2.096 0,0.88 Z"
             style="fill:#b3b3b3;fill-opacity:1;fill-rule:nonzero;stroke:none"
             id="path218"
             inkscape:connector-curvature="0" /></g><g
           id="g220"
           transform="translate(535,450.0132)"><path
             d="M 0,0 C 0,-1.215 0.223,-2.013 -1.168,-2.013 H -68.663 C -70.053,-2.013 -71,-1.215 -71,0 v 0.88 c 0,1.216 0.947,2.107 2.337,2.107 H -1.168 C 0.223,2.987 0,2.096 0,0.88 Z"
             style="fill:#b3b3b3;fill-opacity:1;fill-rule:nonzero;stroke:none"
             id="path222"
             inkscape:connector-curvature="0" /></g><g
           id="g224"
           transform="translate(535,441.2124)"><path
             d="M 0,0 C 0,-1.215 0.223,-2.212 -1.168,-2.212 H -68.663 C -70.053,-2.212 -71,-1.215 -71,0 v 0.88 c 0,1.215 0.947,1.908 2.337,1.908 H -1.168 C 0.223,2.788 0,2.095 0,0.88 Z"
             style="fill:#b3b3b3;fill-opacity:1;fill-rule:nonzero;stroke:none"
             id="path226"
             inkscape:connector-curvature="0" /></g><g
           id="g228"
           transform="translate(535,432.4111)"><path
             d="M 0,0 C 0,-1.215 0.223,-2.411 -1.168,-2.411 H -68.663 C -70.053,-2.411 -71,-1.215 -71,0 v 0.88 c 0,1.215 0.947,1.709 2.337,1.709 H -1.168 C 0.223,2.589 0,2.095 0,0.88 Z"
             style="fill:#b3b3b3;fill-opacity:1;fill-rule:nonzero;stroke:none"
             id="path230"
             inkscape:connector-curvature="0" /></g><g
           id="g232"
           transform="translate(535,423.6099)"><path
             d="M 0,0 C 0,-1.215 0.223,-2.61 -1.168,-2.61 H -68.663 C -70.053,-2.61 -71,-1.215 -71,0 v 0.88 c 0,1.215 0.947,2.51 2.337,2.51 H -1.168 C 0.223,3.39 0,2.095 0,0.88 Z"
             style="fill:#b3b3b3;fill-opacity:1;fill-rule:nonzero;stroke:none"
             id="path234"
             inkscape:connector-curvature="0" /></g><g
           id="g236"
           transform="translate(502,414.8086)"><path
             d="M 0,0 C 0,-1.215 0.065,-1.809 -1.324,-1.809 H -35.663 C -37.053,-1.809 -38,-1.215 -38,0 v 0.88 c 0,1.216 0.947,2.311 2.337,2.311 H -1.324 C 0.065,3.191 0,2.096 0,0.88 Z"
             style="fill:#b3b3b3;fill-opacity:1;fill-rule:nonzero;stroke:none"
             id="path238"
             inkscape:connector-curvature="0" /></g><g
           id="g240"
           transform="translate(372,450.0132)"><path
             d="M 0,0 C 0,-1.215 -0.489,-2.013 -1.879,-2.013 H -69.374 C -70.765,-2.013 -72,-1.215 -72,0 v 0.88 c 0,1.216 1.235,2.107 2.626,2.107 H -1.879 C -0.489,2.987 0,2.096 0,0.88 Z"
             style="fill:#b3b3b3;fill-opacity:1;fill-rule:nonzero;stroke:none"
             id="path242"
             inkscape:connector-curvature="0" /></g><g
           id="g244"
           transform="translate(372,441.2124)"><path
             d="M 0,0 C 0,-1.215 -0.489,-2.212 -1.879,-2.212 H -69.374 C -70.765,-2.212 -72,-1.215 -72,0 v 0.88 c 0,1.215 1.235,1.908 2.626,1.908 H -1.879 C -0.489,2.788 0,2.095 0,0.88 Z"
             style="fill:#b3b3b3;fill-opacity:1;fill-rule:nonzero;stroke:none"
             id="path246"
             inkscape:connector-curvature="0" /></g><g
           id="g248"
           transform="translate(372,432.4111)"><path
             d="M 0,0 C 0,-1.215 -0.489,-2.411 -1.879,-2.411 H -69.374 C -70.765,-2.411 -72,-1.215 -72,0 v 0.88 c 0,1.215 1.235,1.709 2.626,1.709 H -1.879 C -0.489,2.589 0,2.095 0,0.88 Z"
             style="fill:#b3b3b3;fill-opacity:1;fill-rule:nonzero;stroke:none"
             id="path250"
             inkscape:connector-curvature="0" /></g><g
           id="g252"
           transform="translate(372,423.6099)"><path
             d="M 0,0 C 0,-1.215 -0.489,-2.61 -1.879,-2.61 H -69.374 C -70.765,-2.61 -72,-1.215 -72,0 v 0.88 c 0,1.215 1.235,2.51 2.626,2.51 H -1.879 C -0.489,3.39 0,2.095 0,0.88 Z"
             style="fill:#b3b3b3;fill-opacity:1;fill-rule:nonzero;stroke:none"
             id="path254"
             inkscape:connector-curvature="0" /></g><g
           id="g256"
           transform="translate(339,414.8086)"><path
             d="M 0,0 C 0,-1.215 -0.646,-1.809 -2.036,-1.809 H -36.374 C -37.765,-1.809 -39,-1.215 -39,0 v 0.88 c 0,1.216 1.235,2.311 2.626,2.311 H -2.036 C -0.646,3.191 0,2.096 0,0.88 Z"
             style="fill:#b3b3b3;fill-opacity:1;fill-rule:nonzero;stroke:none"
             id="path258"
             inkscape:connector-curvature="0" /></g><g
           id="g260"
           transform="translate(397,120)"><path
             d="m 0,0 h -302 v 193.668 c 0,4.027 3.979,6.332 8.006,6.332 H -5.985 C -1.958,200 0,197.695 0,193.668 Z"
             style="fill:#4d4d4d;fill-opacity:1;fill-rule:nonzero;stroke:none"
             id="path262"
             inkscape:connector-curvature="0" /></g><path
           d="M 387,135 H 107 v 171 h 280 z"
           style="fill:#f2f2f2;fill-opacity:1;fill-rule:nonzero;stroke:none"
           id="path264"
           inkscape:connector-curvature="0" /><g
           id="g266"
           transform="translate(436,112)"><path
             d="M 0,0 V 8.446 C 0,10.459 -1.045,11 -3.06,11 H -373.097 C -375.111,11 -377,10.459 -377,8.446 V 0 h 0.257 c 0,0 9.114,-7 14.582,-7 h 348.166 c 5.468,0 14.583,7 14.583,7 z"
             style="fill:#4d4d4d;fill-opacity:1;fill-rule:nonzero;stroke:none"
             id="path268"
             inkscape:connector-curvature="0" /></g><g
           id="g270"
           transform="translate(280.7334,117)"><path
             d="m 0,0 h -65.624 c -5.468,0 -5.468,6 -5.468,6 h 76.56 c 0,0 0,-6 -5.468,-6"
             style="fill:#b3b3b3;fill-opacity:1;fill-rule:nonzero;stroke:none"
             id="path272"
             inkscape:connector-curvature="0" /></g><g
           id="g274"
           transform="translate(219,281.5654)"><path
             d="M 0,0 C 0,-2.437 -1.648,-4.565 -4.088,-4.565 H -51.174 C -53.612,-4.565 -56,-2.437 -56,0 v 8.829 c 0,2.437 2.388,4.606 4.826,4.606 H -4.088 C -1.648,13.435 0,11.266 0,8.829 Z"
             style="fill:#ff4522;fill-opacity:1;fill-rule:nonzero;stroke:none"
             id="path276"
             inkscape:connector-curvature="0" /></g><g
           id="g278"
           transform="translate(331,225.4141)"><path
             d="m 0,0 c 0,-2.438 -1.977,-4.414 -4.414,-4.414 h -159.172 c -2.437,0 -4.414,1.976 -4.414,4.414 v 41.172 c 0,2.437 1.977,4.414 4.414,4.414 H -4.414 C -1.977,45.586 0,43.609 0,41.172 Z"
             style="fill:#47dee5;fill-opacity:1;fill-rule:nonzero;stroke:none"
             id="path280"
             inkscape:connector-curvature="0" /></g><g
           id="g282"
           transform="translate(215,190.335)"><path
             d="M 0,0 C 0,-2.437 -2.063,-4.335 -4.502,-4.335 H -47.174 C -49.612,-4.335 -52,-2.437 -52,0 v 22.071 c 0,2.438 2.388,4.594 4.826,4.594 H -4.502 C -2.063,26.665 0,24.509 0,22.071 Z"
             style="fill:#999999;fill-opacity:1;fill-rule:nonzero;stroke:none"
             id="path284"
             inkscape:connector-curvature="0" /></g><g
           id="g286"
           transform="translate(272,190.415)"><path
             d="m 0,0 c 0,-2.438 -1.977,-4.415 -4.415,-4.415 h -42.17 C -49.023,-4.415 -51,-2.438 -51,0 v 22.17 c 0,2.438 1.977,4.415 4.415,4.415 h 42.17 C -1.977,26.585 0,24.608 0,22.17 Z"
             style="fill:#999999;fill-opacity:1;fill-rule:nonzero;stroke:none"
             id="path288"
             inkscape:connector-curvature="0" /></g><g
           id="g290"
           transform="translate(330,190.415)"><path
             d="M 0,0 C 0,-2.438 -1.977,-4.415 -4.414,-4.415 H -46.586 C -49.023,-4.415 -51,-2.438 -51,0 v 22.17 c 0,2.438 1.977,4.415 4.414,4.415 H -4.414 C -1.977,26.585 0,24.608 0,22.17 Z"
             style="fill:#999999;fill-opacity:1;fill-rule:nonzero;stroke:none"
             id="path292"
             inkscape:connector-curvature="0" /></g><g
           id="g294"
           transform="translate(272,177.46)"><path
             d="M 0,0 C 0,-1.016 -0.501,-1.46 -1.488,-1.46 H -49.414 C -50.401,-1.46 -51,-1.016 -51,0 v 0.735 c 0,1.017 0.599,1.805 1.586,1.805 H -1.488 C -0.501,2.54 0,1.752 0,0.735 Z"
             style="fill:#b3b3b3;fill-opacity:1;fill-rule:nonzero;stroke:none"
             id="path296"
             inkscape:connector-curvature="0" /></g><g
           id="g298"
           transform="translate(272,170.1025)"><path
             d="M 0,0 C 0,-1.016 -0.501,-2.103 -1.488,-2.103 H -49.414 C -50.401,-2.103 -51,-1.016 -51,0 v 0.735 c 0,1.016 0.599,2.162 1.586,2.162 H -1.488 C -0.501,2.897 0,1.751 0,0.735 Z"
             style="fill:#b3b3b3;fill-opacity:1;fill-rule:nonzero;stroke:none"
             id="path300"
             inkscape:connector-curvature="0" /></g><g
           id="g302"
           transform="translate(272,162.7451)"><path
             d="M 0,0 C 0,-1.016 -0.501,-2.745 -1.488,-2.745 H -49.414 C -50.401,-2.745 -51,-1.016 -51,0 v 0.736 c 0,1.016 0.599,2.519 1.586,2.519 H -1.488 C -0.501,3.255 0,1.752 0,0.736 Z"
             style="fill:#b3b3b3;fill-opacity:1;fill-rule:nonzero;stroke:none"
             id="path304"
             inkscape:connector-curvature="0" /></g><g
           id="g306"
           transform="translate(272,155.3877)"><path
             d="M 0,0 C 0,-1.017 -0.501,-2.388 -1.488,-2.388 H -49.414 C -50.401,-2.388 -51,-1.017 -51,0 v 0.735 c 0,1.017 0.599,1.877 1.586,1.877 H -1.488 C -0.501,2.612 0,1.752 0,0.735 Z"
             style="fill:#b3b3b3;fill-opacity:1;fill-rule:nonzero;stroke:none"
             id="path308"
             inkscape:connector-curvature="0" /></g><g
           id="g310"
           transform="translate(248,148.0312)"><path
             d="M 0,0 C 0,-1.017 -0.044,-2.031 -1.031,-2.031 H -25.414 C -26.401,-2.031 -27,-1.017 -27,0 v 0.735 c 0,1.016 0.599,2.234 1.586,2.234 H -1.031 C -0.044,2.969 0,1.751 0,0.735 Z"
             style="fill:#b3b3b3;fill-opacity:1;fill-rule:nonzero;stroke:none"
             id="path312"
             inkscape:connector-curvature="0" /></g><g
           id="g314"
           transform="translate(331,177.46)"><path
             d="M 0,0 C 0,-1.016 -0.643,-1.46 -1.63,-1.46 H -49.556 C -50.543,-1.46 -52,-1.016 -52,0 v 0.735 c 0,1.017 1.457,1.805 2.444,1.805 H -1.63 C -0.643,2.54 0,1.752 0,0.735 Z"
             style="fill:#b3b3b3;fill-opacity:1;fill-rule:nonzero;stroke:none"
             id="path316"
             inkscape:connector-curvature="0" /></g><g
           id="g318"
           transform="translate(331,170.1025)"><path
             d="M 0,0 C 0,-1.016 -0.643,-2.103 -1.63,-2.103 H -49.556 C -50.543,-2.103 -52,-1.016 -52,0 v 0.735 c 0,1.016 1.457,2.162 2.444,2.162 H -1.63 C -0.643,2.897 0,1.751 0,0.735 Z"
             style="fill:#b3b3b3;fill-opacity:1;fill-rule:nonzero;stroke:none"
             id="path320"
             inkscape:connector-curvature="0" /></g><g
           id="g322"
           transform="translate(331,162.7451)"><path
             d="M 0,0 C 0,-1.016 -0.643,-2.745 -1.63,-2.745 H -49.556 C -50.543,-2.745 -52,-1.016 -52,0 v 0.736 c 0,1.016 1.457,2.519 2.444,2.519 H -1.63 C -0.643,3.255 0,1.752 0,0.736 Z"
             style="fill:#b3b3b3;fill-opacity:1;fill-rule:nonzero;stroke:none"
             id="path324"
             inkscape:connector-curvature="0" /></g><g
           id="g326"
           transform="translate(331,155.3877)"><path
             d="M 0,0 C 0,-1.017 -0.643,-2.388 -1.63,-2.388 H -49.556 C -50.543,-2.388 -52,-1.017 -52,0 v 0.735 c 0,1.017 1.457,1.877 2.444,1.877 H -1.63 C -0.643,2.612 0,1.752 0,0.735 Z"
             style="fill:#b3b3b3;fill-opacity:1;fill-rule:nonzero;stroke:none"
             id="path328"
             inkscape:connector-curvature="0" /></g><g
           id="g330"
           transform="translate(308,148.0312)"><path
             d="M 0,0 C 0,-1.017 -1.186,-2.031 -2.173,-2.031 H -26.556 C -27.543,-2.031 -29,-1.017 -29,0 v 0.735 c 0,1.016 1.457,2.234 2.444,2.234 H -2.173 C -1.186,2.969 0,1.751 0,0.735 Z"
             style="fill:#b3b3b3;fill-opacity:1;fill-rule:nonzero;stroke:none"
             id="path332"
             inkscape:connector-curvature="0" /></g><g
           id="g334"
           transform="translate(215,177.46)"><path
             d="M 0,0 C 0,-1.016 -0.888,-1.46 -1.875,-1.46 H -49.801 C -50.787,-1.46 -52,-1.016 -52,0 v 0.735 c 0,1.017 1.213,1.805 2.199,1.805 H -1.875 C -0.888,2.54 0,1.752 0,0.735 Z"
             style="fill:#b3b3b3;fill-opacity:1;fill-rule:nonzero;stroke:none"
             id="path336"
             inkscape:connector-curvature="0" /></g><g
           id="g338"
           transform="translate(215,170.1025)"><path
             d="M 0,0 C 0,-1.016 -0.888,-2.103 -1.875,-2.103 H -49.801 C -50.787,-2.103 -52,-1.016 -52,0 v 0.735 c 0,1.016 1.213,2.162 2.199,2.162 H -1.875 C -0.888,2.897 0,1.751 0,0.735 Z"
             style="fill:#b3b3b3;fill-opacity:1;fill-rule:nonzero;stroke:none"
             id="path340"
             inkscape:connector-curvature="0" /></g><g
           id="g342"
           transform="translate(215,162.7451)"><path
             d="M 0,0 C 0,-1.016 -0.888,-2.745 -1.875,-2.745 H -49.801 C -50.787,-2.745 -52,-1.016 -52,0 v 0.736 c 0,1.016 1.213,2.519 2.199,2.519 H -1.875 C -0.888,3.255 0,1.752 0,0.736 Z"
             style="fill:#b3b3b3;fill-opacity:1;fill-rule:nonzero;stroke:none"
             id="path344"
             inkscape:connector-curvature="0" /></g><g
           id="g346"
           transform="translate(215,155.3877)"><path
             d="M 0,0 C 0,-1.017 -0.888,-2.388 -1.875,-2.388 H -49.801 C -50.787,-2.388 -52,-1.017 -52,0 v 0.735 c 0,1.017 1.213,1.877 2.199,1.877 H -1.875 C -0.888,2.612 0,1.752 0,0.735 Z"
             style="fill:#b3b3b3;fill-opacity:1;fill-rule:nonzero;stroke:none"
             id="path348"
             inkscape:connector-curvature="0" /></g><g
           id="g350"
           transform="translate(191,148.0312)"><path
             d="M 0,0 C 0,-1.017 -0.432,-2.031 -1.419,-2.031 H -25.801 C -26.787,-2.031 -28,-1.017 -28,0 v 0.735 c 0,1.016 1.213,2.234 2.199,2.234 H -1.419 C -0.432,2.969 0,1.751 0,0.735 Z"
             style="fill:#b3b3b3;fill-opacity:1;fill-rule:nonzero;stroke:none"
             id="path352"
             inkscape:connector-curvature="0" /></g><g
           id="g354"
           transform="translate(740,220.5322)"><path
             d="M 0,0 C 0,-7.67 -6.012,-14.532 -13.678,-14.532 H -156.662 C -164.328,-14.532 -171,-7.67 -171,0 v 197.936 c 0,7.669 6.672,14.532 14.338,14.532 H -13.678 C -6.012,212.468 0,205.605 0,197.936 Z"
             style="fill:#4d4d4d;fill-opacity:1;fill-rule:nonzero;stroke:none"
             id="path356"
             inkscape:connector-curvature="0" /></g><path
           d="M 726,242 H 583 v 174 h 143 z"
           style="fill:#f2f2f2;fill-opacity:1;fill-rule:nonzero;stroke:none"
           id="path358"
           inkscape:connector-curvature="0" /><g
           id="g360"
           transform="translate(666.3027,224.4785)"><path
             d="m 0,0 c 0,-6.34 -5.133,-11.471 -11.473,-11.471 -6.339,0 -11.472,5.131 -11.472,11.471 0,6.34 5.133,11.477 11.472,11.477 C -5.133,11.477 0,6.34 0,0"
             style="fill:#b3b3b3;fill-opacity:1;fill-rule:nonzero;stroke:none"
             id="path362"
             inkscape:connector-curvature="0" /></g><g
           id="g364"
           transform="translate(656,388.9453)"><path
             d="M 0,0 C 0,-2.402 -1.829,-3.945 -4.232,-3.945 H -50.648 C -53.053,-3.945 -55,-2.402 -55,0 v 8.703 c 0,2.402 1.947,4.352 4.352,4.352 H -4.232 C -1.829,13.055 0,11.105 0,8.703 Z"
             style="fill:#ff4522;fill-opacity:1;fill-rule:nonzero;stroke:none"
             id="path366"
             inkscape:connector-curvature="0" /></g><g
           id="g368"
           transform="translate(708,333.8271)"><path
             d="m 0,0 c 0,-2.402 -1.611,-4.827 -4.015,-4.827 h -98.633 c -2.405,0 -4.352,2.425 -4.352,4.827 v 40.613 c 0,2.403 1.947,4.56 4.352,4.56 H -4.015 C -1.611,45.173 0,43.016 0,40.613 Z"
             style="fill:#47dee5;fill-opacity:1;fill-rule:nonzero;stroke:none"
             id="path370"
             inkscape:connector-curvature="0" /></g><g
           id="g372"
           transform="translate(652,299.0146)"><path
             d="M 0,0 C 0,-2.402 -2.18,-4.015 -4.584,-4.015 H -46.648 C -49.053,-4.015 -51,-2.402 -51,0 v 21.758 c 0,2.402 1.947,4.227 4.352,4.227 H -4.584 C -2.18,25.985 0,24.16 0,21.758 Z"
             style="fill:#999999;fill-opacity:1;fill-rule:nonzero;stroke:none"
             id="path374"
             inkscape:connector-curvature="0" /></g><g
           id="g376"
           transform="translate(708,299.0146)"><path
             d="M 0,0 C 0,-2.402 -1.611,-4.015 -4.015,-4.015 H -46.079 C -48.482,-4.015 -50,-2.402 -50,0 v 21.758 c 0,2.402 1.518,4.227 3.921,4.227 H -4.015 C -1.611,25.985 0,24.16 0,21.758 Z"
             style="fill:#999999;fill-opacity:1;fill-rule:nonzero;stroke:none"
             id="path378"
             inkscape:connector-curvature="0" /></g><g
           id="g380"
           transform="translate(708,286.3232)"><path
             d="M 0,0 C 0,-1.002 -0.452,-1.323 -1.426,-1.323 H -48.668 C -49.642,-1.323 -50,-1.002 -50,0 v 0.725 c 0,1.002 0.358,1.952 1.332,1.952 H -1.426 C -0.452,2.677 0,1.727 0,0.725 Z"
             style="fill:#b3b3b3;fill-opacity:1;fill-rule:nonzero;stroke:none"
             id="path382"
             inkscape:connector-curvature="0" /></g><g
           id="g384"
           transform="translate(708,279.0703)"><path
             d="M 0,0 C 0,-1.001 -0.452,-2.07 -1.426,-2.07 H -48.668 C -49.642,-2.07 -50,-1.001 -50,0 v 0.726 c 0,1.001 0.358,2.204 1.332,2.204 H -1.426 C -0.452,2.93 0,1.727 0,0.726 Z"
             style="fill:#b3b3b3;fill-opacity:1;fill-rule:nonzero;stroke:none"
             id="path386"
             inkscape:connector-curvature="0" /></g><g
           id="g388"
           transform="translate(708,271.8184)"><path
             d="M 0,0 C 0,-1.002 -0.452,-1.818 -1.426,-1.818 H -48.668 C -49.642,-1.818 -50,-1.002 -50,0 v 0.725 c 0,1.002 0.358,1.457 1.332,1.457 H -1.426 C -0.452,2.182 0,1.727 0,0.725 Z"
             style="fill:#b3b3b3;fill-opacity:1;fill-rule:nonzero;stroke:none"
             id="path390"
             inkscape:connector-curvature="0" /></g><g
           id="g392"
           transform="translate(708,264.5654)"><path
             d="M 0,0 C 0,-1.001 -0.452,-1.565 -1.426,-1.565 H -48.668 C -49.642,-1.565 -50,-1.001 -50,0 v 0.726 c 0,1.001 0.358,1.709 1.332,1.709 H -1.426 C -0.452,2.435 0,1.727 0,0.726 Z"
             style="fill:#b3b3b3;fill-opacity:1;fill-rule:nonzero;stroke:none"
             id="path394"
             inkscape:connector-curvature="0" /></g><g
           id="g396"
           transform="translate(685,257.3135)"><path
             d="M 0,0 C 0,-1.002 -0.66,-2.313 -1.633,-2.313 H -25.668 C -26.642,-2.313 -27,-1.002 -27,0 v 0.725 c 0,1.002 0.358,1.962 1.332,1.962 H -1.633 C -0.66,2.687 0,1.727 0,0.725 Z"
             style="fill:#b3b3b3;fill-opacity:1;fill-rule:nonzero;stroke:none"
             id="path398"
             inkscape:connector-curvature="0" /></g><g
           id="g400"
           transform="translate(652,286.3232)"><path
             d="M 0,0 C 0,-1.002 -1.021,-1.323 -1.994,-1.323 H -49.238 C -50.211,-1.323 -51,-1.002 -51,0 v 0.725 c 0,1.002 0.789,1.952 1.762,1.952 H -1.994 C -1.021,2.677 0,1.727 0,0.725 Z"
             style="fill:#b3b3b3;fill-opacity:1;fill-rule:nonzero;stroke:none"
             id="path402"
             inkscape:connector-curvature="0" /></g><g
           id="g404"
           transform="translate(652,279.0703)"><path
             d="M 0,0 C 0,-1.001 -1.021,-2.07 -1.994,-2.07 H -49.238 C -50.211,-2.07 -51,-1.001 -51,0 v 0.726 c 0,1.001 0.789,2.204 1.762,2.204 H -1.994 C -1.021,2.93 0,1.727 0,0.726 Z"
             style="fill:#b3b3b3;fill-opacity:1;fill-rule:nonzero;stroke:none"
             id="path406"
             inkscape:connector-curvature="0" /></g><g
           id="g408"
           transform="translate(652,271.8184)"><path
             d="M 0,0 C 0,-1.002 -1.021,-1.818 -1.994,-1.818 H -49.238 C -50.211,-1.818 -51,-1.002 -51,0 v 0.725 c 0,1.002 0.789,1.457 1.762,1.457 H -1.994 C -1.021,2.182 0,1.727 0,0.725 Z"
             style="fill:#b3b3b3;fill-opacity:1;fill-rule:nonzero;stroke:none"
             id="path410"
             inkscape:connector-curvature="0" /></g><g
           id="g412"
           transform="translate(652,264.5654)"><path
             d="M 0,0 C 0,-1.001 -1.021,-1.565 -1.994,-1.565 H -49.238 C -50.211,-1.565 -51,-1.001 -51,0 v 0.726 c 0,1.001 0.789,1.709 1.762,1.709 H -1.994 C -1.021,2.435 0,1.727 0,0.726 Z"
             style="fill:#b3b3b3;fill-opacity:1;fill-rule:nonzero;stroke:none"
             id="path414"
             inkscape:connector-curvature="0" /></g><g
           id="g416"
           transform="translate(629,257.3135)"><path
             d="M 0,0 C 0,-1.002 -1.229,-2.313 -2.203,-2.313 H -26.238 C -27.211,-2.313 -28,-1.002 -28,0 v 0.725 c 0,1.002 0.789,1.962 1.762,1.962 H -2.203 C -1.229,2.687 0,1.727 0,0.725 Z"
             style="fill:#b3b3b3;fill-opacity:1;fill-rule:nonzero;stroke:none"
             id="path418"
             inkscape:connector-curvature="0" /></g><g
           id="g420"
           transform="translate(596,83.2871)"><path
             d="M 0,0 C 0,-6.479 -6.256,-12.287 -12.742,-12.287 H -87.085 C -93.568,-12.287 -99,-6.479 -99,0 v 160.424 c 0,6.48 5.432,12.289 11.915,12.289 h 74.343 C -6.256,172.713 0,166.904 0,160.424 Z"
             style="fill:#4d4d4d;fill-opacity:1;fill-rule:nonzero;stroke:none"
             id="path422"
             inkscape:connector-curvature="0" /></g><g
           id="g424"
           transform="translate(596,83.2871)"><path
             d="M 0,0 C 0,-6.479 -6.256,-12.287 -12.742,-12.287 H -87.085 C -93.568,-12.287 -99,-6.479 -99,0 v 160.424 c 0,6.48 5.432,12.289 11.915,12.289 h 74.343 C -6.256,172.713 0,166.904 0,160.424 Z"
             style="fill:#4d4d4d;fill-opacity:1;fill-rule:nonzero;stroke:none"
             id="path426"
             inkscape:connector-curvature="0" /></g><path
           d="m 589,98 h -85 v 135 h 85 z"
           style="fill:#f2f2f2;fill-opacity:1;fill-rule:nonzero;stroke:none"
           id="path428"
           inkscape:connector-curvature="0" /><g
           id="g430"
           transform="translate(553.1953,84.7852)"><path
             d="m 0,0 c 0,-3.922 -3.182,-7.107 -7.107,-7.107 -3.927,0 -7.108,3.185 -7.108,7.107 0,3.924 3.181,7.107 7.108,7.107 C -3.182,7.107 0,3.924 0,0"
             style="fill:#b3b3b3;fill-opacity:1;fill-rule:nonzero;stroke:none"
             id="path432"
             inkscape:connector-curvature="0" /></g><g
           id="g434"
           transform="translate(563,241.8594)"><path
             d="M 0,0 C 0,-1.027 -0.832,-1.859 -1.858,-1.859 H -37.142 C -38.168,-1.859 -39,-1.027 -39,0 v 0.281 c 0,1.028 0.832,1.86 1.858,1.86 H -1.858 C -0.832,2.141 0,1.309 0,0.281 Z"
             style="fill:#b3b3b3;fill-opacity:1;fill-rule:nonzero;stroke:none"
             id="path436"
             inkscape:connector-curvature="0" /></g><g
           id="g438"
           transform="translate(580,212.5195)"><path
             d="M 0,0 C 0,-1.943 -1.576,-3.52 -3.52,-3.52 H -63.48 C -65.424,-3.52 -67,-1.943 -67,0 v 6.961 c 0,1.943 1.576,3.519 3.52,3.519 H -3.52 C -1.576,10.48 0,8.904 0,6.961 Z"
             style="fill:#ff4522;fill-opacity:1;fill-rule:nonzero;stroke:none"
             id="path440"
             inkscape:connector-curvature="0" /></g><g
           id="g442"
           transform="translate(580,168.5205)"><path
             d="M 0,0 C 0,-1.944 -1.576,-3.521 -3.52,-3.521 H -63.48 C -65.424,-3.521 -67,-1.944 -67,0 v 32.959 c 0,1.944 1.576,3.52 3.52,3.52 h 59.96 c 1.944,0 3.52,-1.576 3.52,-3.52 z"
             style="fill:#47dee5;fill-opacity:1;fill-rule:nonzero;stroke:none"
             id="path444"
             inkscape:connector-curvature="0" /></g><g
           id="g446"
           transform="translate(580,140.4463)"><path
             d="M 0,0 C 0,-1.943 -1.2,-3.446 -3.188,-3.446 H -63.77 C -65.757,-3.446 -67,-1.943 -67,0 v 17.601 c 0,1.943 1.243,2.953 3.23,2.953 H -3.188 C -1.2,20.554 0,19.544 0,17.601 Z"
             style="fill:#999999;fill-opacity:1;fill-rule:nonzero;stroke:none"
             id="path448"
             inkscape:connector-curvature="0" /></g><g
           id="g450"
           transform="translate(580,111.4463)"><path
             d="M 0,0 C 0,-1.943 -1.199,-3.446 -3.188,-3.446 H -63.77 C -65.758,-3.446 -67,-1.943 -67,0 v 17.601 c 0,1.943 1.242,2.953 3.23,2.953 H -3.188 C -1.199,20.554 0,19.544 0,17.601 Z"
             style="fill:#999999;fill-opacity:1;fill-rule:nonzero;stroke:none"
             id="path452"
             inkscape:connector-curvature="0" /></g><g
           id="g454"
           transform="translate(709.5,674)"><path
             d="m 0,0 h -89 l 15,44 h 89 z"
             style="fill:#47dee5;fill-opacity:1;fill-rule:nonzero;stroke:none"
             id="path456"
             inkscape:connector-curvature="0" /></g><g
           id="g458"
           transform="translate(164.5,674)"><path
             d="m 0,0 h -89 l 15,44 h 89 z"
             style="fill:#47dee5;fill-opacity:1;fill-rule:nonzero;stroke:none"
             id="path460"
             inkscape:connector-curvature="0" /></g><g
           id="g462"
           transform="translate(660.5,683)"><path
             d="m 0,0 h -523 l 15,44 H 15 Z"
             style="fill:#309599;fill-opacity:1;fill-rule:nonzero;stroke:none"
             id="path464"
             inkscape:connector-curvature="0" /></g></g></g><text
       transform="scale(1,-1)"
       style="font-style:italic;font-variant:normal;font-weight:600;font-stretch:normal;font-size:36px;font-family:'Open Sans Semibold';-inkscape-font-specification:OpenSans-SemiboldItalic;writing-mode:lr-tb;fill:#ffffff;fill-opacity:1;fill-rule:nonzero;stroke:none"
       id="text468"
       x="190.78755"
       y="-691.64062"
       clip-path="url(#clipPath8404)"><tspan
         x="190.78755 211.99155 230.92755 249.50356 270.13156 296.23157 322.43954 341.01556 351.70755 372.19156 391.12756 400.48755 431.91556 450.85156 472.77557 482.13556 506.29156 525.22754 543.80353 554.49554 579.08356"
         y="-691.64062"
         sodipodi:role="line"
         id="tspan466">RESPONSIVE WEB DESIGN</tspan></text>
</g></svg>